<svg xmlns="http://www.w3.org/2000/svg" width="873" height="65" viewBox="0 0 873 65"><g transform="translate(4.5,0.5)"><g stroke="black" stroke-width="1" stroke-linecap="round" transform="translate(0,15)"><line x2="864"></line><line y2="30"></line><line x2="864" y1="30" y2="30"></line><line x1="864" x2="864" y2="30"></line><line x1="837" x2="837" y2="30"></line><line x1="810" x2="810" y2="30"></line><line x1="783" x2="783" y2="30"></line><line x1="756" x2="756" y2="30"></line><line x1="729" x2="729" y2="30"></line><line x1="702" x2="702" y2="30"></line><line x1="675" x2="675" y2="30"></line><line x1="648" x2="648" y2="3.75"></line><line x1="648" x2="648" y1="26.25" y2="30"></line><line x1="621" x2="621" y2="3.75"></line><line x1="621" x2="621" y1="26.25" y2="30"></line><line x1="594" x2="594" y2="3.75"></line><line x1="594" x2="594" y1="26.25" y2="30"></line><line x1="567" x2="567" y2="30"></line><line x1="540" x2="540" y2="3.75"></line><line x1="540" x2="540" y1="26.25" y2="30"></line><line x1="513" x2="513" y2="3.75"></line><line x1="513" x2="513" y1="26.25" y2="30"></line><line x1="486" x2="486" y2="3.75"></line><line x1="486" x2="486" y1="26.25" y2="30"></line><line x1="459" x2="459" y2="30"></line><line x1="432" x2="432" y2="3.75"></line><line x1="432" x2="432" y1="26.25" y2="30"></line><line x1="405" x2="405" y2="3.75"></line><line x1="405" x2="405" y1="26.25" y2="30"></line><line x1="378" x2="378" y2="3.75"></line><line x1="378" x2="378" y1="26.25" y2="30"></line><line x1="351" x2="351" y2="3.75"></line><line x1="351" x2="351" y1="26.25" y2="30"></line><line x1="324" x2="324" y2="30"></line><line x1="297" x2="297" y2="3.75"></line><line x1="297" x2="297" y1="26.25" y2="30"></line><line x1="270" x2="270" y2="3.75"></line><line x1="270" x2="270" y1="26.25" y2="30"></line><line x1="243" x2="243" y2="3.75"></line><line x1="243" x2="243" y1="26.25" y2="30"></line><line x1="216" x2="216" y2="30"></line><line x1="189" x2="189" y2="3.75"></line><line x1="189" x2="189" y1="26.25" y2="30"></line><line x1="162" x2="162" y2="3.75"></line><line x1="162" x2="162" y1="26.25" y2="30"></line><line x1="135" x2="135" y2="3.75"></line><line x1="135" x2="135" y1="26.25" y2="30"></line><line x1="108" x2="108" y2="30"></line><line x1="81" x2="81" y2="3.75"></line><line x1="81" x2="81" y1="26.25" y2="30"></line><line x1="54" x2="54" y2="3.75"></line><line x1="54" x2="54" y1="26.25" y2="30"></line><line x1="27" x2="27" y2="3.75"></line><line x1="27" x2="27" y1="26.25" y2="30"></line></g><g text-anchor="middle"><g><g transform="translate(0,15)"></g><g transform="translate(13.5,12)"><text x="837" font-size="14" font-family="sans-serif" font-weight="normal">0</text><text x="810" font-size="14" font-family="sans-serif" font-weight="normal">1</text><text x="783" font-size="14" font-family="sans-serif" font-weight="normal">2</text><text x="756" font-size="14" font-family="sans-serif" font-weight="normal">3</text><text x="729" font-size="14" font-family="sans-serif" font-weight="normal">4</text><text x="702" font-size="14" font-family="sans-serif" font-weight="normal">5</text><text x="675" font-size="14" font-family="sans-serif" font-weight="normal">6</text><text x="648" font-size="14" font-family="sans-serif" font-weight="normal">7</text><text x="567" font-size="14" font-family="sans-serif" font-weight="normal">10</text><text x="540" font-size="14" font-family="sans-serif" font-weight="normal">11</text><text x="459" font-size="14" font-family="sans-serif" font-weight="normal">14</text><text x="432" font-size="14" font-family="sans-serif" font-weight="normal">15</text><text x="324" font-size="14" font-family="sans-serif" font-weight="normal">19</text><text x="297" font-size="14" font-family="sans-serif" font-weight="normal">20</text><text x="216" font-size="14" font-family="sans-serif" font-weight="normal">23</text><text x="189" font-size="14" font-family="sans-serif" font-weight="normal">24</text><text x="108" font-size="14" font-family="sans-serif" font-weight="normal">27</text><text x="81" font-size="14" font-family="sans-serif" font-weight="normal">28</text><text x="0" font-size="14" font-family="sans-serif" font-weight="normal">31</text></g><g transform="translate(13.5,34)"><text x="837" font-size="14" font-family="sans-serif" font-weight="normal">1</text><text x="810" font-size="14" font-family="sans-serif" font-weight="normal">1</text><text x="783" font-size="14" font-family="sans-serif" font-weight="normal"><tspan>0</tspan></text><text x="756" font-size="14" font-family="sans-serif" font-weight="normal">1</text><text x="729" font-size="14" font-family="sans-serif" font-weight="normal"><tspan>0</tspan></text><text x="702" font-size="14" font-family="sans-serif" font-weight="normal"><tspan>0</tspan></text><text x="675" font-size="14" font-family="sans-serif" font-weight="normal"><tspan>0</tspan></text><text x="607.5" font-size="14" font-family="sans-serif" font-weight="normal"><tspan>ds</tspan></text><text x="499.5" font-size="14" font-family="sans-serif" font-weight="normal"><tspan>funct</tspan></text><text x="378" font-size="14" font-family="sans-serif" font-weight="normal"><tspan>rs1</tspan></text><text x="256.5" font-size="14" font-family="sans-serif" font-weight="normal"><tspan>s2</tspan></text><text x="148.5" font-size="14" font-family="sans-serif" font-weight="normal"><tspan>k</tspan></text><text x="40.5" font-size="14" font-family="sans-serif" font-weight="normal"><tspan>s1</tspan></text></g><g transform="translate(13.5,60)"></g></g></g></g></svg>
