<svg xmlns="http://www.w3.org/2000/svg" width="873" height="65" viewBox="0 0 873 65"><g transform="translate(4.5,0.5)"><g stroke="black" stroke-width="1" stroke-linecap="round" transform="translate(0,15)"><line x2="864"></line><line y2="30"></line><line x2="864" y1="30" y2="30"></line><line x1="864" x2="864" y2="30"></line><line x1="810" x2="810" y2="3.75"></line><line x1="810" x2="810" y1="26.25" y2="30"></line><line x1="756" x2="756" y2="3.75"></line><line x1="756" x2="756" y1="26.25" y2="30"></line><line x1="702" x2="702" y2="3.75"></line><line x1="702" x2="702" y1="26.25" y2="30"></line><line x1="648" x2="648" y2="3.75"></line><line x1="648" x2="648" y1="26.25" y2="30"></line><line x1="594" x2="594" y2="3.75"></line><line x1="594" x2="594" y1="26.25" y2="30"></line><line x1="540" x2="540" y2="3.75"></line><line x1="540" x2="540" y1="26.25" y2="30"></line><line x1="486" x2="486" y2="3.75"></line><line x1="486" x2="486" y1="26.25" y2="30"></line><line x1="432" x2="432" y2="3.75"></line><line x1="432" x2="432" y1="26.25" y2="30"></line><line x1="378" x2="378" y2="3.75"></line><line x1="378" x2="378" y1="26.25" y2="30"></line><line x1="324" x2="324" y2="3.75"></line><line x1="324" x2="324" y1="26.25" y2="30"></line><line x1="270" x2="270" y2="30"></line><line x1="216" x2="216" y2="3.75"></line><line x1="216" x2="216" y1="26.25" y2="30"></line><line x1="162" x2="162" y2="3.75"></line><line x1="162" x2="162" y1="26.25" y2="30"></line><line x1="108" x2="108" y2="3.75"></line><line x1="108" x2="108" y1="26.25" y2="30"></line><line x1="54" x2="54" y2="3.75"></line><line x1="54" x2="54" y1="26.25" y2="30"></line></g><g text-anchor="middle"><g><g transform="translate(0,15)"></g><g transform="translate(27,12)"><text x="810" font-size="14" font-family="sans-serif" font-weight="normal">0</text><text x="270" font-size="14" font-family="sans-serif" font-weight="normal">10</text><text x="216" font-size="14" font-family="sans-serif" font-weight="normal">11</text><text x="0" font-size="14" font-family="sans-serif" font-weight="normal">15</text></g><g transform="translate(27,34)"><text x="540" font-size="14" font-family="sans-serif" font-weight="normal"><tspan>Bank Address</tspan></text><text x="108" font-size="14" font-family="sans-serif" font-weight="normal"><tspan>permutation</tspan></text></g><g transform="translate(27,60)"></g></g></g></g></svg>
